<svg width="256" height="168" viewBox="0 0 256 168" fill="none" xmlns="http://www.w3.org/2000/svg">
<g clip-path="url(#clip0_5_12)">
<path d="M13.3566 167.625C13.3395 167.542 11.6832 159.298 15.0658 152.451C18.4483 145.605 25.6688 142.585 25.7413 142.555L26.0713 142.42L26.1493 142.796C26.1664 142.878 27.8227 151.122 24.4401 157.969C21.0577 164.816 13.8371 167.835 13.7646 167.865L13.4344 168L13.3566 167.625ZM25.6187 143.336C24.1724 144.015 18.4643 146.987 15.6074 152.77C12.7502 158.553 13.6123 165.393 13.8871 167.084C15.3328 166.406 21.0387 163.439 23.8985 157.65C26.7555 151.867 25.8938 145.029 25.6187 143.336Z" fill="#584B4B"/>
<path d="M21.8551 155.567C15.7765 159.559 13.4354 167.487 13.4354 167.487C13.4354 167.487 20.9497 168.944 27.0284 164.953C33.1071 160.961 35.4482 153.032 35.4482 153.032C35.4482 153.032 27.9338 151.575 21.8551 155.567Z" fill="#5B4BED"/>
<path d="M113.909 91.5762C114.002 91.054 113.988 90.5159 113.87 89.9999C113.751 89.4839 113.531 89.0025 113.223 88.5897C112.916 88.1768 112.529 87.8425 112.091 87.6104C111.652 87.3782 111.173 87.2538 110.685 87.246L107.87 79.5193L103.151 80.2412L107.267 91.0919C107.309 91.9863 107.65 92.8328 108.226 93.471C108.802 94.1091 109.572 94.4945 110.391 94.5542C111.209 94.6139 112.02 94.3438 112.668 93.7949C113.317 93.246 113.758 92.4566 113.909 91.5762Z" fill="#9F616A"/>
<path d="M105.215 88.8613L103.753 85.0555L94.6405 66.1236L95.136 31.0929L95.2311 31.0792C101.062 30.2384 105.007 59.5613 105.172 60.8101L110.929 82.3015L112.299 87.0386L105.215 88.8613Z" fill="#5B4BED"/>
<path d="M91.2137 162.729L95.644 162.729L97.7515 144.077L91.2128 144.077L91.2137 162.729Z" fill="#9F616A"/>
<path d="M90.0836 161.15L98.8085 161.15H98.8088C100.283 161.15 101.698 161.789 102.74 162.928C103.783 164.066 104.369 165.609 104.369 167.219V167.416L90.0838 167.417L90.0836 161.15Z" fill="#2F2E41"/>
<path d="M50.4783 155.362L54.1134 158.126L65.6127 144.139L60.2479 140.059L50.4783 155.362Z" fill="#9F616A"/>
<path d="M50.3782 153.361L57.5366 158.806L57.5369 158.806C58.7467 159.726 59.572 161.133 59.8313 162.718C60.0906 164.302 59.7627 165.934 58.9197 167.255L58.8164 167.417L47.0961 158.502L50.3782 153.361Z" fill="#2F2E41"/>
<path d="M88.7788 158.345L88.5873 123.355L85.7998 101.354L80.6026 120.702L80.5925 120.718L61.7587 150.562L54.4303 146.509L54.4704 146.405C54.9183 145.243 65.4715 117.935 68.308 117.935C68.5558 117.954 68.804 117.907 69.0313 117.798C69.2587 117.689 69.4583 117.521 69.6131 117.309C70.4456 116.095 69.7676 113.521 69.7607 113.495C68.9487 109.82 70.9903 108.568 71.397 108.359L72.4907 83.7151L72.6041 83.7236L102.255 85.9938L101.011 116.805L98.3352 157.174L98.2433 157.186L88.7788 158.345Z" fill="#2F2E41"/>
<path d="M102.708 91.4545L102.58 91.4431L70.691 88.6374L70.7697 77.1209L72.3305 47.0507L72.3393 47.0298L78.6955 31.968L83.2013 29.7411L89.7751 29.3635L89.7911 29.3679L95.7905 30.9902L102.031 79.89L102.708 91.4545Z" fill="#5B4BED"/>
<path d="M90.8052 25.5034C94.874 23.0758 96.3693 17.5076 94.1451 13.0666C91.9209 8.62563 86.8195 6.99351 82.7508 9.42118C78.682 11.8489 77.1867 17.417 79.4109 21.858C81.6351 26.299 86.7365 27.9311 90.8052 25.5034Z" fill="#9F616A"/>
<path d="M78.3343 19.7627V16.1922C78.3343 16.1922 75.6962 12.8008 78.5981 11.9466C78.5981 11.9466 79.3895 3.40386 86.2486 7.39046C86.2486 7.39046 95.7457 5.68192 94.6905 11.6618C94.6905 11.6618 97.0648 10.1007 96.2733 14.0873L94.7427 20.509C94.7427 20.509 95.4819 16.267 93.1076 15.6974L91.7886 14.8432C91.7886 14.8432 88.0952 18.8298 82.5552 13.9889C82.5552 13.9889 80.1809 13.3704 80.4447 15.9332C80.7086 18.496 78.3343 19.7627 78.3343 19.7627Z" fill="#2F2E41"/>
<path d="M85.9038 82.8542C85.9091 82.3223 85.8075 81.7955 85.6061 81.3111C85.4048 80.8267 85.1085 80.3963 84.7383 80.0504C84.3681 79.7045 83.9328 79.4513 83.4633 79.3088C82.9937 79.1663 82.5012 79.138 82.0205 79.2257L77.981 72.1758L73.4572 73.8103L79.2899 83.6787C79.4785 84.5504 79.9534 85.3163 80.6247 85.8313C81.2961 86.3463 82.1172 86.5746 82.9324 86.473C83.7477 86.3713 84.5004 85.9468 85.0481 85.2799C85.5958 84.6129 85.9002 83.7498 85.9038 82.8542Z" fill="#9F616A"/>
<path d="M75.4703 80.6319L68.1621 64.4366L68.1686 64.3973C68.198 64.218 71.1398 46.3892 73.3898 39.8358C75.654 33.241 78.7532 31.9169 78.8841 31.8638L78.9495 31.8372L81.7284 34.7467L77.8789 62.7918L82.0283 76.3175L75.4703 80.6319Z" fill="#5B4BED"/>
<path d="M256 0H241.85V15.445H256V0Z" fill="#5B4BED"/>
<path d="M145.258 60.1012H131.108V75.5462H145.258V60.1012Z" fill="#5B4BED"/>
<path d="M139.05 68.7781H250.922V6.96164H139.05V68.7781Z" fill="white"/>
<path d="M251.845 69.7854H138.127V5.95432H251.845V69.7854ZM139.973 67.7709H249.999V7.96888H139.973V67.7709Z" fill="#5B4BED"/>
<path d="M117.509 167.986H0.307616C0.226031 167.986 0.147788 167.951 0.0900984 167.888C0.0324092 167.825 0 167.74 0 167.651C0 167.562 0.0324092 167.476 0.0900984 167.413C0.147788 167.35 0.226031 167.315 0.307616 167.315H117.509C117.591 167.315 117.669 167.35 117.727 167.413C117.785 167.476 117.817 167.562 117.817 167.651C117.817 167.74 117.785 167.825 117.727 167.888C117.669 167.951 117.591 167.986 117.509 167.986Z" fill="#CBCBCB"/>
<path d="M161.881 23V15.7273H164.423C164.93 15.7273 165.348 15.8149 165.677 15.9901C166.006 16.1629 166.251 16.3961 166.412 16.6896C166.573 16.9808 166.653 17.304 166.653 17.6591C166.653 17.9716 166.598 18.2296 166.487 18.4332C166.378 18.6368 166.233 18.7978 166.053 18.9162C165.876 19.0346 165.683 19.1222 165.474 19.179V19.25C165.697 19.2642 165.921 19.3423 166.146 19.4844C166.371 19.6264 166.559 19.83 166.71 20.0952C166.862 20.3603 166.938 20.6847 166.938 21.0682C166.938 21.4328 166.855 21.7607 166.689 22.0518C166.523 22.343 166.262 22.5739 165.904 22.7443C165.547 22.9148 165.081 23 164.509 23H161.881ZM162.761 22.2188H164.509C165.084 22.2188 165.492 22.1075 165.734 21.8849C165.978 21.66 166.099 21.3878 166.099 21.0682C166.099 20.822 166.037 20.5947 165.911 20.3864C165.786 20.1757 165.607 20.0076 165.375 19.8821C165.143 19.7543 164.868 19.6903 164.551 19.6903H162.761V22.2188ZM162.761 18.9233H164.395C164.66 18.9233 164.899 18.8712 165.112 18.767C165.328 18.6629 165.498 18.5161 165.624 18.3267C165.751 18.1373 165.815 17.9148 165.815 17.6591C165.815 17.3395 165.704 17.0684 165.482 16.8459C165.259 16.621 164.906 16.5085 164.423 16.5085H162.761V18.9233ZM168.271 23V17.5455H169.109V23H168.271ZM168.697 16.6364C168.534 16.6364 168.393 16.5807 168.275 16.4695C168.158 16.3582 168.1 16.2244 168.1 16.0682C168.1 15.9119 168.158 15.7782 168.275 15.6669C168.393 15.5556 168.534 15.5 168.697 15.5C168.86 15.5 169 15.5556 169.116 15.6669C169.234 15.7782 169.294 15.9119 169.294 16.0682C169.294 16.2244 169.234 16.3582 169.116 16.4695C169 16.5807 168.86 16.6364 168.697 16.6364ZM172.931 23.1136C172.405 23.1136 171.952 22.9976 171.571 22.7656C171.192 22.5312 170.9 22.2045 170.694 21.7855C170.49 21.3641 170.388 20.8741 170.388 20.3153C170.388 19.7566 170.49 19.2642 170.694 18.8381C170.9 18.4096 171.186 18.0758 171.553 17.8366C171.922 17.5952 172.353 17.4744 172.846 17.4744C173.13 17.4744 173.41 17.5218 173.687 17.6165C173.964 17.7112 174.216 17.8651 174.444 18.0781C174.671 18.2888 174.852 18.5682 174.987 18.9162C175.122 19.2642 175.189 19.6927 175.189 20.2017V20.5568H170.985V19.8324H174.337C174.337 19.5246 174.276 19.25 174.153 19.0085C174.032 18.767 173.859 18.5765 173.634 18.4368C173.412 18.2971 173.149 18.2273 172.846 18.2273C172.512 18.2273 172.223 18.3101 171.979 18.4759C171.738 18.6392 171.552 18.8523 171.422 19.1151C171.291 19.3778 171.226 19.6596 171.226 19.9602V20.4432C171.226 20.8551 171.297 21.2043 171.439 21.4908C171.584 21.7749 171.784 21.9915 172.04 22.1406C172.295 22.2874 172.592 22.3608 172.931 22.3608C173.151 22.3608 173.35 22.33 173.528 22.2685C173.707 22.2045 173.863 22.1098 173.993 21.9844C174.123 21.8565 174.224 21.6979 174.295 21.5085L175.104 21.7358C175.019 22.0104 174.876 22.2519 174.675 22.4602C174.473 22.6662 174.225 22.8272 173.929 22.9432C173.633 23.0568 173.3 23.1136 172.931 23.1136ZM177.302 19.7188V23H176.464V17.5455H177.274V18.3977H177.345C177.473 18.1207 177.667 17.8982 177.927 17.7301C178.188 17.5597 178.524 17.4744 178.936 17.4744C179.305 17.4744 179.628 17.5502 179.905 17.7017C180.182 17.8509 180.398 18.0781 180.552 18.3835C180.706 18.6866 180.782 19.0701 180.782 19.5341V23H179.944V19.5909C179.944 19.1624 179.833 18.8286 179.611 18.5895C179.388 18.348 179.083 18.2273 178.694 18.2273C178.427 18.2273 178.188 18.2853 177.977 18.4013C177.769 18.5173 177.604 18.6866 177.483 18.9091C177.363 19.1316 177.302 19.4015 177.302 19.7188ZM186.579 17.5455L184.562 23H183.71L181.692 17.5455H182.602L184.107 21.892H184.164L185.67 17.5455H186.579ZM189.777 23.1136C189.251 23.1136 188.798 22.9976 188.417 22.7656C188.038 22.5312 187.745 22.2045 187.539 21.7855C187.336 21.3641 187.234 20.8741 187.234 20.3153C187.234 19.7566 187.336 19.2642 187.539 18.8381C187.745 18.4096 188.032 18.0758 188.399 17.8366C188.768 17.5952 189.199 17.4744 189.691 17.4744C189.975 17.4744 190.256 17.5218 190.533 17.6165C190.81 17.7112 191.062 17.8651 191.289 18.0781C191.517 18.2888 191.698 18.5682 191.833 18.9162C191.968 19.2642 192.035 19.6927 192.035 20.2017V20.5568H187.831V19.8324H191.183C191.183 19.5246 191.121 19.25 190.998 19.0085C190.877 18.767 190.705 18.5765 190.48 18.4368C190.257 18.2971 189.994 18.2273 189.691 18.2273C189.358 18.2273 189.069 18.3101 188.825 18.4759C188.583 18.6392 188.398 18.8523 188.267 19.1151C188.137 19.3778 188.072 19.6596 188.072 19.9602V20.4432C188.072 20.8551 188.143 21.2043 188.285 21.4908C188.43 21.7749 188.63 21.9915 188.885 22.1406C189.141 22.2874 189.438 22.3608 189.777 22.3608C189.997 22.3608 190.196 22.33 190.373 22.2685C190.553 22.2045 190.708 22.1098 190.838 21.9844C190.969 21.8565 191.069 21.6979 191.14 21.5085L191.95 21.7358C191.865 22.0104 191.721 22.2519 191.52 22.4602C191.319 22.6662 191.07 22.8272 190.775 22.9432C190.479 23.0568 190.146 23.1136 189.777 23.1136ZM194.148 19.7188V23H193.31V17.5455H194.12V18.3977H194.191C194.319 18.1207 194.513 17.8982 194.773 17.7301C195.033 17.5597 195.37 17.4744 195.782 17.4744C196.151 17.4744 196.474 17.5502 196.751 17.7017C197.028 17.8509 197.243 18.0781 197.397 18.3835C197.551 18.6866 197.628 19.0701 197.628 19.5341V23H196.79V19.5909C196.79 19.1624 196.679 18.8286 196.456 18.5895C196.234 18.348 195.928 18.2273 195.54 18.2273C195.273 18.2273 195.033 18.2853 194.823 18.4013C194.614 18.5173 194.45 18.6866 194.329 18.9091C194.208 19.1316 194.148 19.4015 194.148 19.7188ZM202.597 20.7699V17.5455H203.435V23H202.597V22.0767H202.54C202.412 22.3537 202.214 22.5893 201.944 22.7834C201.674 22.9751 201.333 23.071 200.921 23.071C200.58 23.071 200.277 22.9964 200.012 22.8473C199.747 22.6958 199.538 22.4685 199.387 22.1655C199.235 21.8601 199.16 21.4754 199.16 21.0114V17.5455H199.998V20.9545C199.998 21.3523 200.109 21.6695 200.331 21.9062C200.556 22.143 200.843 22.2614 201.191 22.2614C201.399 22.2614 201.611 22.2081 201.827 22.1016C202.044 21.995 202.227 21.8317 202.373 21.6115C202.523 21.3913 202.597 21.1108 202.597 20.7699ZM207.257 23.1136C206.732 23.1136 206.278 22.9976 205.897 22.7656C205.518 22.5312 205.226 22.2045 205.02 21.7855C204.816 21.3641 204.714 20.8741 204.714 20.3153C204.714 19.7566 204.816 19.2642 205.02 18.8381C205.226 18.4096 205.512 18.0758 205.879 17.8366C206.249 17.5952 206.679 17.4744 207.172 17.4744C207.456 17.4744 207.737 17.5218 208.013 17.6165C208.29 17.7112 208.543 17.8651 208.77 18.0781C208.997 18.2888 209.178 18.5682 209.313 18.9162C209.448 19.2642 209.516 19.6927 209.516 20.2017V20.5568H205.311V19.8324H208.663C208.663 19.5246 208.602 19.25 208.479 19.0085C208.358 18.767 208.185 18.5765 207.96 18.4368C207.738 18.2971 207.475 18.2273 207.172 18.2273C206.838 18.2273 206.549 18.3101 206.305 18.4759C206.064 18.6392 205.878 18.8523 205.748 19.1151C205.618 19.3778 205.553 19.6596 205.553 19.9602V20.4432C205.553 20.8551 205.624 21.2043 205.766 21.4908C205.91 21.7749 206.11 21.9915 206.366 22.1406C206.621 22.2874 206.919 22.3608 207.257 22.3608C207.477 22.3608 207.676 22.33 207.854 22.2685C208.034 22.2045 208.189 22.1098 208.319 21.9844C208.449 21.8565 208.55 21.6979 208.621 21.5085L209.43 21.7358C209.345 22.0104 209.202 22.2519 209.001 22.4602C208.799 22.6662 208.551 22.8272 208.255 22.9432C207.959 23.0568 207.626 23.1136 207.257 23.1136ZM217.467 18.767L216.714 18.9801C216.666 18.8546 216.597 18.7327 216.504 18.6143C216.414 18.4936 216.291 18.3942 216.135 18.3161C215.979 18.2379 215.779 18.1989 215.535 18.1989C215.201 18.1989 214.923 18.2758 214.7 18.4297C214.48 18.5812 214.37 18.7741 214.37 19.0085C214.37 19.2169 214.446 19.3814 214.597 19.5021C214.749 19.6229 214.986 19.7235 215.308 19.804L216.117 20.0028C216.605 20.1212 216.968 20.3023 217.207 20.5462C217.446 20.7876 217.566 21.099 217.566 21.4801C217.566 21.7926 217.476 22.072 217.296 22.3182C217.119 22.5644 216.87 22.7585 216.55 22.9006C216.231 23.0426 215.859 23.1136 215.435 23.1136C214.879 23.1136 214.419 22.9929 214.054 22.7514C213.689 22.5099 213.459 22.1572 213.362 21.6932L214.157 21.4943C214.233 21.7879 214.376 22.008 214.587 22.1548C214.8 22.3016 215.078 22.375 215.421 22.375C215.812 22.375 216.122 22.2921 216.352 22.1264C216.584 21.9583 216.7 21.7571 216.7 21.5227C216.7 21.3333 216.633 21.1747 216.501 21.0469C216.368 20.9167 216.165 20.8196 215.89 20.7557L214.981 20.5426C214.481 20.4242 214.114 20.2408 213.88 19.9922C213.648 19.7412 213.532 19.4276 213.532 19.0511C213.532 18.7434 213.618 18.4711 213.791 18.2344C213.966 17.9976 214.204 17.8118 214.505 17.6768C214.808 17.5419 215.151 17.4744 215.535 17.4744C216.075 17.4744 216.498 17.5928 216.806 17.8295C217.116 18.0663 217.336 18.3788 217.467 18.767ZM222.265 20.7699V17.5455H223.103V23H222.265V22.0767H222.208C222.08 22.3537 221.882 22.5893 221.612 22.7834C221.342 22.9751 221.001 23.071 220.589 23.071C220.248 23.071 219.945 22.9964 219.68 22.8473C219.415 22.6958 219.206 22.4685 219.055 22.1655C218.903 21.8601 218.828 21.4754 218.828 21.0114V17.5455H219.666V20.9545C219.666 21.3523 219.777 21.6695 219.999 21.9062C220.224 22.143 220.511 22.2614 220.859 22.2614C221.067 22.2614 221.279 22.2081 221.494 22.1016C221.712 21.995 221.895 21.8317 222.041 21.6115C222.191 21.3913 222.265 21.1108 222.265 20.7699ZM224.638 23V17.5455H225.448V18.3693H225.505C225.604 18.0994 225.784 17.8804 226.044 17.7124C226.305 17.5443 226.598 17.4602 226.925 17.4602C226.987 17.4602 227.064 17.4614 227.156 17.4638C227.248 17.4661 227.318 17.4697 227.365 17.4744V18.3267C227.337 18.3196 227.272 18.3089 227.17 18.2947C227.071 18.2782 226.965 18.2699 226.854 18.2699C226.589 18.2699 226.352 18.3255 226.144 18.4368C225.938 18.5457 225.775 18.6972 225.654 18.8913C225.535 19.0831 225.476 19.3021 225.476 19.5483V23H224.638Z" fill="black"/>
<rect x="163" y="25" width="64" height="37" rx="3" fill="#5B4BED"/>
<path d="M182.109 36.753C182.109 36.495 182.298 36.366 182.676 36.366C182.838 36.366 183.147 36.372 183.603 36.384C184.107 36.408 184.488 36.42 184.746 36.42C184.956 36.42 185.211 36.408 185.511 36.384C185.715 36.372 185.844 36.366 185.898 36.366C186.228 36.378 186.507 36.438 186.735 36.546C186.801 36.576 186.855 36.612 186.897 36.654C186.939 36.696 186.96 36.765 186.96 36.861C186.96 36.993 186.918 37.107 186.834 37.203C186.75 37.293 186.648 37.338 186.528 37.338C186.396 37.338 186.204 37.32 185.952 37.284C185.73 37.242 185.535 37.221 185.367 37.221C185.205 37.221 185.082 37.224 184.998 37.23C184.98 37.428 184.971 37.902 184.971 38.652C184.971 39.546 184.998 40.452 185.052 41.37L185.07 41.631C185.07 41.877 184.929 42 184.647 42C184.425 42 184.275 41.949 184.197 41.847C184.119 41.739 184.08 41.577 184.08 41.361C184.08 40.935 184.068 40.404 184.044 39.768C184.02 39.24 184.008 38.865 184.008 38.643C184.008 38.493 184.026 38.034 184.062 37.266L183.009 37.275C182.673 37.275 182.439 37.245 182.307 37.185C182.175 37.119 182.109 36.975 182.109 36.753ZM187.991 36.222C188.201 36.24 188.384 36.297 188.54 36.393C188.696 36.483 188.774 36.621 188.774 36.807C188.774 36.945 188.708 37.056 188.576 37.14C188.45 37.218 188.297 37.257 188.117 37.257C187.943 37.257 187.823 37.212 187.757 37.122C187.691 37.032 187.658 36.939 187.658 36.843C187.658 36.663 187.676 36.513 187.712 36.393C187.754 36.273 187.847 36.216 187.991 36.222ZM188.711 40.209V40.47C188.711 40.704 188.717 40.926 188.729 41.136C188.747 41.34 188.768 41.547 188.792 41.757C188.786 41.817 188.741 41.88 188.657 41.946C188.573 42.006 188.498 42.036 188.432 42.036C188.318 42.036 188.201 42.015 188.081 41.973C187.967 41.925 187.898 41.868 187.874 41.802C187.838 41.61 187.82 41.439 187.82 41.289C187.82 40.797 187.805 40.245 187.775 39.633C187.751 39.093 187.739 38.715 187.739 38.499C187.739 38.391 187.793 38.298 187.901 38.22C188.009 38.142 188.123 38.103 188.243 38.103C188.417 38.103 188.537 38.142 188.603 38.22C188.675 38.298 188.711 38.421 188.711 38.589V40.209ZM193.029 38.994C193.029 39.258 192.894 39.39 192.624 39.39C192.534 39.39 192.459 39.369 192.399 39.327C192.339 39.285 192.273 39.222 192.201 39.138C192.021 38.94 191.865 38.841 191.733 38.841C191.559 38.841 191.388 38.892 191.22 38.994C191.058 39.096 190.926 39.24 190.824 39.426C190.722 39.612 190.671 39.819 190.671 40.047C190.671 40.299 190.719 40.509 190.815 40.677C190.917 40.845 191.073 40.989 191.283 41.109C191.361 41.151 191.451 41.184 191.553 41.208C191.661 41.232 191.754 41.244 191.832 41.244C192.006 41.244 192.225 41.175 192.489 41.037C192.585 40.989 192.666 40.953 192.732 40.929C192.798 40.905 192.867 40.893 192.939 40.893C193.005 40.893 193.08 40.923 193.164 40.983C193.248 41.043 193.29 41.118 193.29 41.208C193.29 41.388 193.206 41.541 193.038 41.667C192.87 41.787 192.663 41.88 192.417 41.946C192.177 42.006 191.946 42.036 191.724 42.036C191.37 42.036 191.04 41.955 190.734 41.793C190.434 41.631 190.194 41.409 190.014 41.127C189.834 40.839 189.744 40.515 189.744 40.155C189.744 39.771 189.831 39.42 190.005 39.102C190.179 38.784 190.413 38.535 190.707 38.355C191.001 38.175 191.322 38.085 191.67 38.085C191.868 38.085 192.072 38.121 192.282 38.193C192.492 38.265 192.669 38.37 192.813 38.508C192.957 38.646 193.029 38.808 193.029 38.994ZM197.662 41.181C197.764 41.259 197.833 41.334 197.869 41.406C197.905 41.478 197.923 41.568 197.923 41.676C197.923 41.766 197.875 41.85 197.779 41.928C197.689 42 197.605 42.036 197.527 42.036C197.461 42.036 197.383 42.015 197.293 41.973C197.203 41.931 197.134 41.883 197.086 41.829C197.02 41.775 196.891 41.643 196.699 41.433C196.513 41.223 196.375 41.058 196.285 40.938C196.069 40.668 195.961 40.533 195.961 40.533L195.646 40.146L195.07 40.614L195.106 41.595C195.106 41.757 195.064 41.871 194.98 41.937C194.902 42.003 194.824 42.036 194.746 42.036C194.632 42.036 194.53 42.015 194.44 41.973C194.356 41.931 194.305 41.883 194.287 41.829C194.221 41.589 194.188 41.274 194.188 40.884C194.188 40.152 194.2 39.567 194.224 39.129C194.248 38.583 194.26 38.067 194.26 37.581C194.26 37.431 194.242 37.224 194.206 36.96C194.2 36.906 194.191 36.819 194.179 36.699C194.167 36.579 194.161 36.471 194.161 36.375C194.161 36.237 194.206 36.129 194.296 36.051C194.392 35.973 194.515 35.934 194.665 35.934C194.785 35.934 194.881 35.973 194.953 36.051C195.031 36.123 195.07 36.225 195.07 36.357C195.07 36.555 195.076 36.816 195.088 37.14C195.1 37.464 195.106 37.701 195.106 37.851C195.106 38.037 195.1 38.286 195.088 38.598C195.076 38.766 195.07 38.892 195.07 38.976C195.07 39.24 195.073 39.459 195.079 39.633C195.295 39.411 195.583 39.153 195.943 38.859C196.309 38.559 196.594 38.349 196.798 38.229C197.026 38.091 197.164 38.022 197.212 38.022C197.338 38.022 197.446 38.049 197.536 38.103C197.626 38.157 197.671 38.238 197.671 38.346C197.671 38.454 197.656 38.538 197.626 38.598C197.596 38.652 197.542 38.709 197.464 38.769L196.303 39.615C196.561 39.933 196.828 40.257 197.104 40.587C197.38 40.911 197.566 41.109 197.662 41.181ZM198.551 39.939C198.551 39.573 198.632 39.27 198.794 39.03C198.956 38.784 199.181 38.553 199.469 38.337C199.553 38.277 199.694 38.226 199.892 38.184C200.09 38.136 200.264 38.112 200.414 38.112C200.594 38.112 200.783 38.151 200.981 38.229C201.185 38.301 201.35 38.385 201.476 38.481C201.698 38.643 201.851 38.832 201.935 39.048C202.019 39.258 202.061 39.51 202.061 39.804C202.061 39.93 201.989 40.053 201.845 40.173C201.707 40.287 201.557 40.344 201.395 40.344L201.053 40.335C200.879 40.335 200.63 40.341 200.306 40.353L200.117 40.362C199.985 40.374 199.886 40.38 199.82 40.38C199.724 40.38 199.592 40.368 199.424 40.344C199.448 40.626 199.553 40.848 199.739 41.01C199.925 41.166 200.126 41.244 200.342 41.244C200.72 41.244 200.984 41.169 201.134 41.019C201.26 40.929 201.344 40.872 201.386 40.848C201.428 40.824 201.494 40.812 201.584 40.812C201.68 40.812 201.764 40.857 201.836 40.947C201.908 41.037 201.944 41.127 201.944 41.217C201.944 41.319 201.881 41.424 201.755 41.532C201.635 41.634 201.47 41.742 201.26 41.856C201.146 41.904 200.99 41.946 200.792 41.982C200.594 42.018 200.429 42.036 200.297 42.036C200.087 42.036 199.853 41.976 199.595 41.856C199.337 41.73 199.145 41.592 199.019 41.442C198.893 41.292 198.782 41.079 198.686 40.803C198.596 40.527 198.551 40.239 198.551 39.939ZM200.342 39.696C200.768 39.696 201.08 39.681 201.278 39.651C201.266 39.477 201.212 39.336 201.116 39.228C201.02 39.114 200.888 39.018 200.72 38.94C200.666 38.916 200.618 38.898 200.576 38.886C200.534 38.874 200.486 38.868 200.432 38.868C200.156 38.868 199.922 38.943 199.73 39.093C199.544 39.243 199.433 39.435 199.397 39.669C199.697 39.687 200.012 39.696 200.342 39.696ZM202.931 38.886C202.847 38.874 202.778 38.838 202.724 38.778C202.676 38.718 202.652 38.646 202.652 38.562C202.652 38.52 202.661 38.475 202.679 38.427C202.703 38.379 202.736 38.337 202.778 38.301C202.856 38.235 202.961 38.172 203.093 38.112C203.231 38.058 203.33 37.992 203.39 37.914C203.45 37.836 203.48 37.689 203.48 37.473C203.48 37.383 203.474 37.305 203.462 37.239C203.456 37.173 203.453 37.122 203.453 37.086C203.453 36.954 203.501 36.855 203.597 36.789C203.693 36.723 203.804 36.69 203.93 36.69C204.086 36.69 204.191 36.729 204.245 36.807C204.305 36.885 204.335 37.029 204.335 37.239C204.335 37.443 204.326 37.62 204.308 37.77C204.29 37.914 204.251 38.043 204.191 38.157C204.275 38.157 204.413 38.151 204.605 38.139C204.869 38.127 205.052 38.121 205.154 38.121C205.256 38.121 205.346 38.148 205.424 38.202C205.502 38.25 205.541 38.319 205.541 38.409C205.541 38.535 205.514 38.628 205.46 38.688C205.406 38.748 205.328 38.787 205.226 38.805C204.98 38.871 204.632 38.91 204.182 38.922C204.17 39.156 204.164 39.411 204.164 39.687C204.164 40.149 204.191 40.503 204.245 40.749C204.281 40.941 204.341 41.082 204.425 41.172C204.515 41.256 204.647 41.298 204.821 41.298C204.911 41.298 204.983 41.286 205.037 41.262C205.097 41.238 205.13 41.223 205.136 41.217C205.208 41.175 205.274 41.154 205.334 41.154C205.418 41.154 205.478 41.181 205.514 41.235C205.556 41.289 205.577 41.361 205.577 41.451C205.577 41.619 205.487 41.76 205.307 41.874C205.127 41.982 204.896 42.036 204.614 42.036C204.296 42.036 204.026 41.943 203.804 41.757C203.588 41.565 203.459 41.313 203.417 41.001C203.357 40.719 203.327 40.323 203.327 39.813C203.327 39.591 203.339 39.294 203.363 38.922L202.931 38.886ZM183.878 43.312C183.962 43.312 184.064 43.369 184.184 43.483C184.31 43.591 184.373 43.684 184.373 43.762C184.373 44.128 184.361 44.629 184.337 45.265C184.331 45.421 184.325 45.61 184.319 45.832C184.313 46.048 184.31 46.3 184.31 46.588C184.31 47.5 184.364 48.172 184.472 48.604C184.466 48.748 184.409 48.853 184.301 48.919C184.193 48.979 184.085 49.009 183.977 49.009C183.737 49.009 183.578 48.925 183.5 48.757C183.428 48.589 183.392 48.349 183.392 48.037C183.392 46.879 183.404 45.814 183.428 44.842C182.738 45.61 182.201 46.255 181.817 46.777C181.817 46.777 181.763 46.813 181.655 46.885C181.553 46.975 181.469 47.02 181.403 47.02C181.247 47.02 181.118 46.981 181.016 46.903C180.914 46.825 180.815 46.711 180.719 46.561L180.287 45.949C179.987 45.529 179.768 45.211 179.63 44.995C179.63 45.547 179.657 46.297 179.711 47.245C179.753 47.791 179.774 48.202 179.774 48.478C179.774 48.622 179.738 48.745 179.666 48.847C179.594 48.943 179.48 48.991 179.324 48.991C179.168 48.991 179.039 48.961 178.937 48.901C178.841 48.841 178.79 48.751 178.784 48.631C178.79 48.529 178.793 48.361 178.793 48.127C178.793 47.659 178.778 47.089 178.748 46.417L178.73 45.931L178.712 45.301C178.706 45.115 178.7 44.899 178.694 44.653C178.688 44.401 178.685 44.128 178.685 43.834C178.685 43.474 178.88 43.294 179.27 43.294C179.39 43.294 179.51 43.324 179.63 43.384C179.756 43.444 179.849 43.531 179.909 43.645C179.957 43.855 180.134 44.203 180.44 44.689C180.746 45.175 181.046 45.631 181.34 46.057C181.604 45.721 181.82 45.469 181.988 45.301C182.276 45.007 182.513 44.734 182.699 44.482C182.891 44.23 183.098 43.927 183.32 43.573C183.374 43.501 183.452 43.441 183.554 43.393C183.656 43.339 183.764 43.312 183.878 43.312ZM189.684 48.568C189.684 48.7 189.612 48.811 189.468 48.901C189.33 48.991 189.201 49.036 189.081 49.036C188.853 49.036 188.67 49.009 188.532 48.955C188.4 48.895 188.277 48.787 188.163 48.631C188.007 48.769 187.794 48.874 187.524 48.946C187.254 49.012 187.005 49.045 186.777 49.045C186.405 49.045 186.099 48.946 185.859 48.748C185.619 48.544 185.499 48.247 185.499 47.857C185.499 47.689 185.544 47.536 185.634 47.398C185.724 47.254 185.847 47.128 186.003 47.02C186.177 46.906 186.375 46.819 186.597 46.759C186.819 46.693 187.05 46.66 187.29 46.66C187.416 46.66 187.566 46.684 187.74 46.732C187.914 46.78 188.049 46.831 188.145 46.885V46.741C188.145 46.417 188.067 46.195 187.911 46.075C187.755 45.949 187.503 45.886 187.155 45.886C187.053 45.886 186.951 45.907 186.849 45.949C186.753 45.991 186.642 46.048 186.516 46.12C186.348 46.21 186.189 46.255 186.039 46.255C185.985 46.255 185.934 46.219 185.886 46.147C185.838 46.069 185.814 46 185.814 45.94C185.814 45.766 185.895 45.616 186.057 45.49C186.225 45.364 186.423 45.271 186.651 45.211C186.879 45.145 187.083 45.112 187.263 45.112C187.443 45.112 187.65 45.148 187.884 45.22C188.118 45.286 188.31 45.379 188.46 45.499C188.64 45.655 188.778 45.838 188.874 46.048C188.976 46.252 189.027 46.477 189.027 46.723C189.027 46.801 189.021 46.918 189.009 47.074C188.997 47.242 188.991 47.386 188.991 47.506C188.991 47.56 188.985 47.641 188.973 47.749C188.961 47.881 188.955 47.986 188.955 48.064C188.955 48.136 188.982 48.199 189.036 48.253C189.09 48.301 189.153 48.325 189.225 48.325L189.477 48.316C189.543 48.316 189.594 48.34 189.63 48.388C189.666 48.436 189.684 48.496 189.684 48.568ZM186.786 48.334C187.044 48.334 187.26 48.307 187.434 48.253C187.608 48.199 187.818 48.1 188.064 47.956C188.088 47.854 188.103 47.719 188.109 47.551C187.779 47.395 187.506 47.317 187.29 47.317C187.044 47.317 186.825 47.362 186.633 47.452C186.441 47.542 186.345 47.701 186.345 47.929C186.345 48.043 186.393 48.139 186.489 48.217C186.585 48.295 186.684 48.334 186.786 48.334ZM194.387 48.307C194.417 48.319 194.465 48.334 194.531 48.352C194.597 48.37 194.645 48.388 194.675 48.406C194.705 48.424 194.72 48.451 194.72 48.487C194.726 48.631 194.672 48.751 194.558 48.847C194.45 48.937 194.321 48.982 194.171 48.982C193.937 48.982 193.754 48.919 193.622 48.793C193.49 48.667 193.394 48.475 193.334 48.217C193.31 48.115 193.298 47.974 193.298 47.794C193.298 47.692 193.304 47.527 193.316 47.299C193.328 47.059 193.334 46.867 193.334 46.723C193.334 46.513 193.274 46.33 193.154 46.174C193.04 46.012 192.878 45.931 192.668 45.931C192.542 45.931 192.41 45.97 192.272 46.048C192.134 46.12 192.038 46.21 191.984 46.318C191.894 46.492 191.831 46.681 191.795 46.885C191.729 47.245 191.696 47.62 191.696 48.01C191.696 48.196 191.699 48.34 191.705 48.442C191.705 48.466 191.705 48.514 191.705 48.586C191.711 48.652 191.705 48.715 191.687 48.775C191.675 48.829 191.651 48.88 191.615 48.928C191.585 48.958 191.537 48.982 191.471 49C191.411 49.024 191.354 49.036 191.3 49.036C191.216 49.036 191.111 49 190.985 48.928C190.859 48.856 190.787 48.775 190.769 48.685L190.76 48.532C190.76 48.478 190.766 48.415 190.778 48.343C190.85 47.923 190.886 47.557 190.886 47.245C190.886 47.107 190.883 46.999 190.877 46.921L190.868 46.498C190.868 46.354 190.832 46.216 190.76 46.084C190.688 45.946 190.604 45.877 190.508 45.877C190.478 45.877 190.436 45.889 190.382 45.913C190.328 45.931 190.283 45.94 190.247 45.94C190.187 45.94 190.121 45.91 190.049 45.85C189.983 45.79 189.95 45.727 189.95 45.661C189.95 45.535 189.992 45.433 190.076 45.355C190.166 45.283 190.253 45.226 190.337 45.184C190.427 45.142 190.529 45.121 190.643 45.121C190.739 45.121 190.817 45.13 190.877 45.148C190.937 45.166 191.018 45.205 191.12 45.265C191.174 45.295 191.237 45.361 191.309 45.463C191.381 45.565 191.441 45.709 191.489 45.895C191.645 45.607 191.837 45.406 192.065 45.292C192.299 45.172 192.596 45.112 192.956 45.112C193.094 45.112 193.241 45.157 193.397 45.247C193.559 45.337 193.697 45.442 193.811 45.562C193.919 45.694 194.009 45.859 194.081 46.057C194.153 46.249 194.189 46.423 194.189 46.579C194.189 46.669 194.183 46.816 194.171 47.02C194.153 47.182 194.144 47.353 194.144 47.533C194.144 47.953 194.225 48.211 194.387 48.307ZM198.792 49.036C198.588 49.036 198.432 49.006 198.324 48.946C198.216 48.88 198.099 48.76 197.973 48.586C197.817 48.724 197.583 48.835 197.271 48.919C196.965 49.003 196.701 49.045 196.479 49.045C196.113 49.045 195.816 48.946 195.588 48.748C195.366 48.544 195.255 48.247 195.255 47.857C195.255 47.689 195.3 47.536 195.39 47.398C195.486 47.254 195.609 47.128 195.759 47.02C195.927 46.906 196.125 46.816 196.353 46.75C196.587 46.684 196.8 46.651 196.992 46.651C197.316 46.651 197.604 46.681 197.856 46.741V46.732C197.856 46.408 197.775 46.186 197.613 46.066C197.457 45.94 197.205 45.877 196.857 45.877C196.635 45.877 196.443 45.976 196.281 46.174C196.221 46.252 196.095 46.291 195.903 46.291C195.807 46.291 195.735 46.252 195.687 46.174C195.645 46.09 195.624 46.006 195.624 45.922C195.624 45.748 195.696 45.598 195.84 45.472C195.99 45.346 196.17 45.253 196.38 45.193C196.59 45.127 196.785 45.094 196.965 45.094C197.139 45.094 197.346 45.13 197.586 45.202C197.826 45.274 198.021 45.37 198.171 45.49C198.351 45.646 198.489 45.829 198.585 46.039C198.687 46.243 198.738 46.468 198.738 46.714C198.738 46.792 198.732 46.909 198.72 47.065C198.708 47.245 198.702 47.392 198.702 47.506C198.702 47.56 198.696 47.629 198.684 47.713C198.672 47.821 198.666 47.911 198.666 47.983C198.666 48.061 198.69 48.136 198.738 48.208C198.786 48.28 198.852 48.34 198.936 48.388C199.014 48.43 199.065 48.475 199.089 48.523C199.113 48.571 199.125 48.625 199.125 48.685C199.125 48.745 199.086 48.82 199.008 48.91C198.936 48.994 198.864 49.036 198.792 49.036ZM196.992 47.317C196.758 47.317 196.551 47.362 196.371 47.452C196.191 47.542 196.101 47.701 196.101 47.929C196.101 48.043 196.14 48.139 196.218 48.217C196.302 48.295 196.392 48.334 196.488 48.334C196.746 48.334 196.962 48.307 197.136 48.253C197.31 48.199 197.52 48.1 197.766 47.956C197.796 47.86 197.814 47.725 197.82 47.551C197.82 47.485 197.823 47.434 197.829 47.398C197.505 47.344 197.226 47.317 196.992 47.317ZM203.257 46.741C203.257 47.017 203.188 47.251 203.05 47.443C202.912 47.629 202.729 47.794 202.501 47.938C202.189 48.106 201.826 48.193 201.412 48.199C201.388 48.271 201.376 48.346 201.376 48.424C201.376 48.496 201.415 48.55 201.493 48.586C201.577 48.616 201.724 48.64 201.934 48.658C202.108 48.67 202.303 48.709 202.519 48.775C202.741 48.835 202.915 48.904 203.041 48.982C203.197 49.096 203.305 49.219 203.365 49.351C203.431 49.483 203.464 49.648 203.464 49.846C203.464 50.104 203.344 50.32 203.104 50.494C202.87 50.674 202.594 50.806 202.276 50.89C201.958 50.974 201.679 51.016 201.439 51.016C201.151 51.016 200.905 50.98 200.701 50.908C200.503 50.842 200.314 50.749 200.134 50.629C200.008 50.539 199.909 50.425 199.837 50.287C199.765 50.149 199.729 50.005 199.729 49.855C199.729 49.705 199.777 49.561 199.873 49.423C199.975 49.285 200.098 49.165 200.242 49.063C200.386 48.967 200.521 48.901 200.647 48.865C200.599 48.805 200.563 48.754 200.539 48.712C200.521 48.664 200.512 48.61 200.512 48.55C200.512 48.346 200.563 48.175 200.665 48.037C200.377 47.941 200.149 47.77 199.981 47.524C199.819 47.278 199.738 46.99 199.738 46.66C199.738 46.444 199.789 46.249 199.891 46.075C199.993 45.895 200.134 45.724 200.314 45.562C200.62 45.286 201.043 45.148 201.583 45.148C201.655 45.148 201.754 45.16 201.88 45.184C202.006 45.208 202.129 45.241 202.249 45.283C202.441 45.199 202.666 45.112 202.924 45.022C203.182 44.932 203.356 44.887 203.446 44.887C203.584 44.887 203.686 44.911 203.752 44.959C203.824 45.001 203.86 45.097 203.86 45.247C203.86 45.385 203.779 45.484 203.617 45.544C203.461 45.604 203.224 45.661 202.906 45.715C203.14 45.997 203.257 46.339 203.257 46.741ZM201.385 47.461C201.733 47.461 201.985 47.389 202.141 47.245C202.303 47.101 202.384 46.885 202.384 46.597C202.384 46.123 202.105 45.886 201.547 45.886C201.331 45.886 201.16 45.91 201.034 45.958C200.914 46.006 200.815 46.087 200.737 46.201C200.629 46.345 200.575 46.54 200.575 46.786C200.575 46.978 200.653 47.14 200.809 47.272C200.971 47.398 201.163 47.461 201.385 47.461ZM200.575 49.918C200.575 50.02 200.668 50.107 200.854 50.179C201.046 50.257 201.25 50.296 201.466 50.296C201.706 50.296 201.952 50.251 202.204 50.161C202.462 50.077 202.591 49.963 202.591 49.819C202.591 49.609 202.405 49.474 202.033 49.414C201.901 49.39 201.709 49.345 201.457 49.279C201.427 49.273 201.391 49.264 201.349 49.252C201.313 49.24 201.274 49.228 201.232 49.216C201.1 49.264 200.956 49.363 200.8 49.513C200.65 49.669 200.575 49.804 200.575 49.918ZM204.3 46.966C204.3 46.75 204.339 46.549 204.417 46.363C204.495 46.171 204.609 45.973 204.759 45.769C204.909 45.565 205.116 45.406 205.38 45.292C205.644 45.172 205.932 45.112 206.244 45.112C206.484 45.112 206.715 45.163 206.937 45.265C207.165 45.361 207.369 45.481 207.549 45.625C207.573 45.667 207.615 45.745 207.675 45.859C207.735 45.967 207.777 46.066 207.801 46.156C207.831 46.246 207.846 46.339 207.846 46.435C207.846 46.837 207.699 47.107 207.405 47.245C207.111 47.377 206.739 47.443 206.289 47.443C205.839 47.443 205.473 47.413 205.191 47.353C205.203 47.467 205.233 47.581 205.281 47.695C205.329 47.809 205.386 47.896 205.452 47.956C205.572 48.07 205.689 48.145 205.803 48.181C205.923 48.211 206.082 48.226 206.28 48.226C206.58 48.226 206.814 48.169 206.982 48.055C207.138 47.953 207.258 47.902 207.342 47.902C207.456 47.902 207.543 47.938 207.603 48.01C207.663 48.076 207.693 48.163 207.693 48.271C207.693 48.499 207.546 48.685 207.252 48.829C206.964 48.973 206.637 49.045 206.271 49.045C205.983 49.045 205.698 48.994 205.416 48.892C205.134 48.79 204.909 48.646 204.741 48.46C204.627 48.268 204.525 48.034 204.435 47.758C204.345 47.482 204.3 47.218 204.3 46.966ZM206.28 45.85C206.148 45.85 206.01 45.874 205.866 45.922C205.728 45.964 205.62 46.03 205.542 46.12C205.446 46.222 205.374 46.315 205.326 46.399C205.284 46.483 205.257 46.588 205.245 46.714C205.311 46.714 205.374 46.717 205.434 46.723C205.494 46.729 205.551 46.735 205.605 46.741C205.869 46.765 206.067 46.777 206.199 46.777C206.463 46.777 206.664 46.738 206.802 46.66C206.946 46.582 207.018 46.477 207.018 46.345C207.018 46.219 206.937 46.105 206.775 46.003C206.619 45.901 206.454 45.85 206.28 45.85ZM209.964 48.64C209.952 48.742 209.91 48.832 209.838 48.91C209.766 48.988 209.673 49.027 209.559 49.027C209.379 49.027 209.247 48.994 209.163 48.928C209.079 48.856 209.037 48.727 209.037 48.541C209.037 48.289 209.052 48.013 209.082 47.713C209.106 47.365 209.118 47.098 209.118 46.912C209.118 46.816 209.112 46.696 209.1 46.552C209.088 46.42 209.082 46.321 209.082 46.255C209.064 46.153 209.022 46.072 208.956 46.012C208.896 45.952 208.8 45.901 208.668 45.859C208.614 45.835 208.569 45.796 208.533 45.742C208.497 45.682 208.479 45.628 208.479 45.58C208.479 45.442 208.533 45.337 208.641 45.265C208.749 45.193 208.881 45.157 209.037 45.157C209.211 45.157 209.361 45.217 209.487 45.337C209.613 45.457 209.709 45.607 209.775 45.787C209.913 45.589 210.081 45.43 210.279 45.31C210.483 45.19 210.681 45.13 210.873 45.13C211.119 45.13 211.326 45.172 211.494 45.256C211.668 45.334 211.755 45.472 211.755 45.67C211.755 45.784 211.704 45.904 211.602 46.03C211.506 46.15 211.407 46.21 211.305 46.21C211.227 46.21 211.134 46.174 211.026 46.102C210.984 46.072 210.936 46.048 210.882 46.03C210.834 46.006 210.783 45.994 210.729 45.994C210.633 45.994 210.543 46.009 210.459 46.039C210.375 46.069 210.318 46.105 210.288 46.147C210.192 46.297 210.12 46.432 210.072 46.552C210.03 46.672 210.009 46.801 210.009 46.939C210.009 47.041 210.006 47.122 210 47.182L209.991 47.695L210 48.037C210 48.289 209.988 48.49 209.964 48.64Z" fill="#F1F1F1"/>
<rect x="172.249" y="25.2491" width="0.498132" height="36.5019" stroke="white" stroke-width="0.498132" stroke-dasharray="2 2"/>
<rect x="217.249" y="25.2491" width="0.498132" height="36.5019" stroke="white" stroke-width="0.498132" stroke-dasharray="2 2"/>
<path d="M227 35.5V35.5C223.762 35.5 221.137 38.1248 221.137 41.3626V46.1374C221.137 49.3752 223.762 52 227 52V52V35.5Z" fill="white"/>
<path d="M163 36V36C166.301 36 168.978 38.6763 168.978 41.9776V46.3459C168.978 49.6473 166.301 52.3235 163 52.3235V52.3235V36Z" fill="white"/>
</g>
<defs>
<clipPath id="clip0_5_12">
<rect width="256" height="168" fill="white"/>
</clipPath>
</defs>
</svg>
